<?xml version="1.0" encoding="utf-8"?>
<!-- Generator: Adobe Illustrator 19.0.1, SVG Export Plug-In . SVG Version: 6.00 Build 0)  -->
<svg version="1.1" id="box_svg" xmlns="http://www.w3.org/2000/svg"  x="0px" y="0px"
	 viewBox="0 0 98.6 85.2" style="enable-background:new 0 0 98.6 85.2;" xml:space="preserve">
<g id="box_g">
    <style type="text/css">
	.st0{fill:#EBEBEB;}
	.st1{fill:#717171;}
	.st2{fill:#CCCDCF;}
	.st3{fill:#B4B4B6;}
	.st4{fill:none;stroke:#555556;stroke-width:0.8;stroke-linejoin:round;}
	.st5{fill:none;stroke:#000000;stroke-width:1.6;stroke-linejoin:round;}
</style>

	<polygon class="st0" points="0,28.5 49.1,56.8 98.2,28.5 49.1,0.1 	"/>
	<path class="st1" d="M52,35.4l9.8,5.7c1.4,0.8,1.4,2.1,0,2.8L52,49.6c-1.4,0.8-3.6,0.8-4.9,0l-9.8-5.7c-1.4-0.8-1.4-2.1,0-2.8
		l9.8-5.7C48.4,34.6,50.6,34.6,52,35.4z"/>
	<polygon class="st2" points="0,28.3 0,56.7 49.1,85 49.1,56.7 	"/>
	<polygon class="st3" points="49.5,56.7 98.6,28.3 98.6,56.7 49.5,85 	"/>
	<polygon class="st4" points="0.1,28.3 0.1,56.7 49.2,85 49.2,56.7 	"/>
	<polygon class="st4" points="49.4,56.8 98.5,28.5 98.5,56.8 49.4,85.2 	"/>
	<polygon class="st5" points="0.4,56.7 0.4,28.3 49.5,0 98.6,28.3 98.6,56.7 49.5,85 	"/>
</g>
</svg>
