<?xml version="1.0" encoding="utf-8"?>
<!-- Generator: Adobe Illustrator 19.0.1, SVG Export Plug-In . SVG Version: 6.00 Build 0)  -->
<svg version="1.1" id="Layer_1" xmlns="http://www.w3.org/2000/svg" xmlns:xlink="http://www.w3.org/1999/xlink" x="0px" y="0px"
	 viewBox="0 0 190.6 197.1" style="enable-background:new 0 0 190.6 197.1;" xml:space="preserve">
<style type="text/css">
	.st0{fill:#EBEBEB;}
	.st1{fill:none;stroke:#555556;stroke-width:0.8;stroke-linejoin:round;}
	.st2{fill:#CCCDCF;}
	.st3{fill:#B4B4B6;}
	.st4{fill:none;stroke:#555556;stroke-width:0.8;stroke-linecap:square;}
	.st5{fill:none;stroke:#555556;stroke-width:0.8;}
	.st6{fill:none;stroke:#000000;stroke-width:1.6;stroke-linejoin:round;}
	.st7{fill:#717171;}
	.st8{fill:none;stroke:#717171;stroke-width:0.2273;stroke-linejoin:round;}
	.st9{fill:none;stroke:#EBEBEB;stroke-width:1.3326;stroke-linecap:round;stroke-linejoin:round;}
</style>
<g>
	<polygon class="st0" points="2.8,66.8 76.4,109.3 186.9,45.5 113.2,3 	"/>
	<polygon class="st1" points="2.8,66.8 76.4,109.3 186.9,45.5 113.2,3 	"/>
	<polygon class="st2" points="3.6,66.5 3.6,151.5 77.3,194 77.3,109 	"/>
	<polygon class="st1" points="3.6,66.5 3.6,151.5 77.3,194 77.3,109 	"/>
	<polygon class="st3" points="77.3,109 187.7,45.2 187.7,130.3 77.3,194 	"/>
	<polygon class="st1" points="77.3,109 187.7,45.2 187.7,130.3 77.3,194 	"/>
	<polyline class="st4" points="76.4,66.8 40.4,87.7 40.4,172.8 	"/>
	<polyline class="st5" points="40.4,45.2 114.1,87.7 114.1,172.8 	"/>
	<polyline class="st5" points="77.3,24 150.9,66.5 150.9,151.5 	"/>
	<line class="st5" x1="150.1" y1="24.2" x2="113.2" y2="45.5"/>
	<polygon class="st6" points="3.6,151.5 3.6,66.5 114.1,2.7 187.7,45.2 187.7,130.3 77.3,194 	"/>
	<path class="st7" d="M90.2,43.5l26.5,15.3L95,66.5c-7.3-1.4-15.7-6.2-18.1-10.5L90.2,43.5z"/>
	<path class="st8" d="M90.2,43.5l26.5,15.3L95,66.5c-7.3-1.4-15.7-6.2-18.1-10.5L90.2,43.5z"/>
	<path class="st7" d="M118.4,58.2c-2.1,1.2-9.9-1.3-17.4-5.6c-7.5-4.3-11.9-8.8-9.8-10.1c2.1-1.2,9.9,1.3,17.4,5.6
		C116.1,52.5,120.5,57,118.4,58.2z"/>
	<path class="st9" d="M118.4,58.2c-2.1,1.2-9.9-1.3-17.4-5.6c-7.5-4.3-11.9-8.8-9.8-10.1c2.1-1.2,9.9,1.3,17.4,5.6
		C116.1,52.5,120.5,57,118.4,58.2z"/>
</g>
</svg>
