<?xml version="1.0" encoding="utf-8"?>
<!-- Generator: Adobe Illustrator 19.0.1, SVG Export Plug-In . SVG Version: 6.00 Build 0)  -->
<svg version="1.1" id="Layer_1" xmlns="http://www.w3.org/2000/svg" xmlns:xlink="http://www.w3.org/1999/xlink" x="0px" y="0px"
	 viewBox="0 0 95.5 85.3" style="enable-background:new 0 0 95.5 85.3;" xml:space="preserve">
<style type="text/css">
	.st0{opacity:0.9647;fill:none;stroke:#424143;stroke-width:0.8;stroke-linejoin:round;}
	.st1{fill:#CCCDCF;}
	.st2{fill:none;stroke:#555556;stroke-width:0.8;stroke-linejoin:round;}
	.st3{fill:#EBEBEB;}
	.st4{fill:#B4B4B6;}
	.st5{fill:none;stroke:#000000;stroke-width:1.6;stroke-linejoin:round;}
	.st6{fill:#717171;}
</style>
<g>
	<path class="st0" d="M89.7,11.7"/>
	<polygon class="st1" points="65.2,18.8 40.7,4.6 40.7,47.1 65.2,61.3 	"/>
	<polygon class="st2" points="65.2,18.8 40.7,4.6 40.7,47.1 65.2,61.3 	"/>
	<polygon class="st3" points="94.7,7.4 84.8,1.8 40.7,4.6 65.2,18.8 	"/>
	<polygon class="st2" points="94.7,7.4 84.8,1.8 40.7,4.6 65.2,18.8 	"/>
	<polygon class="st4" points="94.7,7.4 65.2,18.8 65.2,61.3 94.7,35.8 	"/>
	<polygon class="st2" points="94.7,7.4 65.2,18.8 65.2,61.3 94.7,35.8 	"/>
	<polygon class="st5" points="94.7,7.4 84.8,1.8 40.7,4.6 40.7,47.1 65.2,61.3 94.7,35.8 	"/>
	<polygon class="st4" points="11.2,55.6 55.4,24.4 55.4,67 11.2,84 	"/>
	<polygon class="st2" points="11.2,55.6 55.4,24.4 55.4,67 11.2,84 	"/>
	<polygon class="st3" points="1.4,49.9 30.8,10.3 55.4,24.4 11.2,55.6 	"/>
	<polygon class="st2" points="1.4,49.9 30.8,10.3 55.4,24.4 11.2,55.6 	"/>
	<polygon class="st1" points="1.4,49.9 11.2,55.6 11.2,84 1.4,78.3 	"/>
	<polygon class="st2" points="1.4,49.9 11.2,55.6 11.2,84 1.4,78.3 	"/>
	<polygon class="st5" points="1.4,49.9 30.8,10.3 55.4,24.4 55.4,67 11.2,84 1.4,78.3 	"/>
	<path class="st6" d="M76.2,42.7l9.3-7.3c4.6-3.6,4-10.9-0.8-11.2c-2.5-7.4-8.6-3.8-9.2,4c-2.4-0.2-3.2,3.7-2.6,5.7
		C68.9,38.2,71.6,46.3,76.2,42.7z"/>
</g>
</svg>
